<?xml version="1.0" encoding="UTF-8"?>
<svg width="800px" height="600px" viewBox="0 0 800 600" version="1.1" xmlns="http://www.w3.org/2000/svg" xmlns:xlink="http://www.w3.org/1999/xlink">
    <title>Health Records Illustration</title>
    <defs>
        <linearGradient x1="0%" y1="0%" x2="100%" y2="100%" id="linearGradient-1">
            <stop stop-color="#4F96FF" offset="0%"></stop>
            <stop stop-color="#2E5CFF" offset="100%"></stop>
        </linearGradient>
        <linearGradient x1="0%" y1="0%" x2="100%" y2="100%" id="linearGradient-2">
            <stop stop-color="#FF6B6B" offset="0%"></stop>
            <stop stop-color="#FF3333" offset="100%"></stop>
        </linearGradient>
    </defs>
    <g id="Health-Records" stroke="none" stroke-width="1" fill="none" fill-rule="evenodd">
        <!-- Background Elements -->
        <circle id="Bg-Circle-1" fill="#E3F2FD" cx="650" cy="150" r="80"></circle>
        <circle id="Bg-Circle-2" fill="#FFF3E0" cx="150" cy="500" r="100"></circle>

        <!-- Main Clipboard -->
        <rect id="Clipboard-Body" fill="#FFFFFF" x="250" y="100" width="300" height="400" rx="10"></rect>
        <rect id="Clipboard-Top" fill="#E0E0E0" x="250" y="100" width="300" height="40" rx="10"></rect>
        <rect id="Clipboard-Clip" fill="#757575" x="375" y="90" width="50" height="30" rx="5"></rect>

        <!-- Lines on Clipboard -->
        <rect id="Line-1" fill="#F5F5F5" x="280" y="160" width="240" height="10" rx="5"></rect>
        <rect id="Line-2" fill="#F5F5F5" x="280" y="190" width="240" height="10" rx="5"></rect>
        <rect id="Line-3" fill="#F5F5F5" x="280" y="220" width="240" height="10" rx="5"></rect>
        <rect id="Line-4" fill="#F5F5F5" x="280" y="250" width="240" height="10" rx="5"></rect>
        <rect id="Line-5" fill="#F5F5F5" x="280" y="280" width="240" height="10" rx="5"></rect>
        <rect id="Line-6" fill="#F5F5F5" x="280" y="310" width="240" height="10" rx="5"></rect>

        <!-- Medical Cross -->
        <rect id="Cross-Vertical" fill="url(#linearGradient-2)" x="300" y="340" width="20" height="80" rx="5"></rect>
        <rect id="Cross-Horizontal" fill="url(#linearGradient-2)" x="270" y="370" width="80" height="20" rx="5"></rect>

        <!-- Heartbeat Line -->
        <path d="M280,450 L320,450 L330,420 L350,480 L370,430 L390,450 L430,450" id="Heartbeat" stroke="#4CAF50" stroke-width="4" stroke-linecap="round"></path>

        <!-- Doctor Figure -->
        <circle id="Doctor-Head" fill="#FFD54F" cx="600" cy="300" r="30"></circle>
        <rect id="Doctor-Body" fill="#42A5F5" x="570" y="330" width="60" height="100" rx="10"></rect>
        <rect id="Doctor-Arm-Left" fill="#42A5F5" x="540" y="340" width="30" height="60" rx="10"></rect>
        <rect id="Doctor-Arm-Right" fill="#42A5F5" x="630" y="340" width="30" height="60" rx="10" transform="translate(645.000000, 370.000000) rotate(-20.000000) translate(-645.000000, -370.000000)"></rect>
        <rect id="Doctor-Leg-Left" fill="#1976D2" x="570" y="430" width="25" height="80" rx="8"></rect>
        <rect id="Doctor-Leg-Right" fill="#1976D2" x="605" y="430" width="25" height="80" rx="8"></rect>
        <circle id="Stethoscope-Head" fill="#E0E0E0" cx="550" cy="380" r="15"></circle>
        <path d="M550,380 C550,380 540,400 520,410 C500,420 480,420 480,420" id="Stethoscope-Tube" stroke="#E0E0E0" stroke-width="5" stroke-linecap="round"></path>

        <!-- Digital Elements -->
        <rect id="Tablet" fill="#EEEEEE" x="100" y="200" width="120" height="180" rx="10"></rect>
        <rect id="Tablet-Screen" fill="#B3E5FC" x="110" y="210" width="100" height="140" rx="5"></rect>
        <circle id="Tablet-Button" fill="#FFFFFF" cx="160" cy="360" r="10"></circle>

        <!-- Health Data Icons -->
        <g id="Health-Icons" transform="translate(120.000000, 230.000000)">
            <circle id="Heart-Icon-Bg" fill="#FFFFFF" cx="35" cy="20" r="15"></circle>
            <path d="M35,15 C35,15 30,5 25,10 C20,15 25,25 35,30 C45,25 50,15 45,10 C40,5 35,15 35,15 Z" id="Heart-Icon" fill="url(#linearGradient-2)"></path>

            <circle id="Pill-Icon-Bg" fill="#FFFFFF" cx="35" cy="60" r="15"></circle>
            <rect id="Pill-Icon" fill="url(#linearGradient-1)" x="25" y="55" width="20" height="10" rx="5"></rect>

            <circle id="Report-Icon-Bg" fill="#FFFFFF" cx="35" cy="100" r="15"></circle>
            <rect id="Report-Icon-Body" fill="#4CAF50" x="30" y="90" width="10" height="15" rx="2"></rect>
            <rect id="Report-Icon-Top" fill="#4CAF50" x="27" y="95" width="16" height="2" rx="1"></rect>
        </g>

        <!-- Connecting Lines (Data Flow) -->
        <path d="M220,280 C260,280 280,280 300,280" id="Data-Flow-1" stroke="#2196F3" stroke-width="2" stroke-dasharray="5,5"></path>
        <path d="M480,380 C500,380 520,380 550,380" id="Data-Flow-2" stroke="#2196F3" stroke-width="2" stroke-dasharray="5,5"></path>

        <!-- Cloud Storage -->
        <path d="M100,150 C100,130 120,120 140,120 C160,120 170,135 170,150 C190,140 210,150 210,170 C210,190 190,200 170,200 L110,200 C90,200 80,180 80,170 C80,160 90,150 100,150 Z" id="Cloud" fill="#E1F5FE"></path>
        <path d="M130,160 L150,180 L170,160" id="Cloud-Arrow" stroke="#29B6F6" stroke-width="3" stroke-linecap="round" stroke-linejoin="round"></path>
    </g>
</svg>